<svg version="1.2" xmlns="http://www.w3.org/2000/svg" viewBox="0 0 1806 457" width="1806" height="457">
	<title>New Project</title>
	<style>
		.s0 { fill: #ffffff } 
		.s1 { opacity: .6;fill: #ff3fae } 
		.s2 { opacity: .5;fill: #ff189d } 
		.s3 { opacity: .9;fill: #ff60bf } 
	</style>
	<path id="Path 7" fill-rule="evenodd" class="s0" d="m590.2 334.6c-3.5 0-6.4-2.9-6.4-6.5v-161.1c0-3.6 2.9-6.5 6.4-6.5h25.1c3.6 0 6.4 2.9 6.4 6.5v135.2h73.3c3.6 0 6.4 2.9 6.4 6.5v19.4c0 3.6-2.8 6.5-6.4 6.5zm171.2 2.7q-13.5 0-23.7-5.2-10.3-5.2-16.4-14.1-5.9-8.8-5.9-20 0-13 6.9-21 6.8-7.9 22.2-11.1 15.4-3.4 40.9-3.4h4.6c2.3 0 4.2-1.9 4.2-4.2q0-10.9-4.9-15.3-4.9-4.7-16.7-4.7-9.7 0-20.7 3.2-7.6 2.1-15.1 5.7c-3.5 1.7-7.8 0.2-9.2-3.4l-5.3-13.2c-1.1-2.9-0.1-6.2 2.6-7.6q4.8-2.7 10.8-5 9.3-3.4 19.3-5.2 10.1-1.9 19.1-1.9 27.9 0 41.6 12.8 13.7 12.6 13.7 39.3v65.1c0 3.6-2.9 6.5-6.4 6.5h-21.7c-3.5 0-6.4-2.9-6.4-6.5v-11.8q-3.7 9.6-12.5 15.3-8.5 5.7-21 5.7zm8.3-24.9q10.3 0 17.4-7.2 7.1-7.2 7.1-18.5c0-2.7-2.2-5-4.9-5h-3.7q-18.8 0-26.6 3.5-7.9 3.2-7.9 11.4 0 6.9 4.7 11.3 4.9 4.5 13.9 4.5zm105.3 66.6c-4.7 0-7.8-4.8-5.9-9.1l18.9-42-45.5-105.5c-1.8-4.3 1.3-9.1 5.9-9.1h24.7c2.7 0 5 1.7 6 4.1l28.5 73 29.4-73c1-2.5 3.3-4.1 5.9-4.1h22.5c4.7 0 7.8 4.8 5.9 9.1l-66.9 152.8c-1.1 2.3-3.4 3.8-5.9 3.8zm170.6-41.7q-21.3 0-36.7-7.6-15.1-7.9-23.4-22-8.1-14.4-8.1-33.6 0-18.8 7.8-32.9 8.1-14.3 21.8-22.2 13.9-8.1 32-8.1 26.2 0 41.6 16.8 15.4 16.5 15.4 44.9v2.9c0 3.6-2.9 6.5-6.4 6.5h-77q2 14.3 10.3 21 8.5 6.4 23.4 6.4 9.8 0 19.9-3 5.8-1.7 10.9-4.5c3.8-2 8.7-0.7 10.3 3.3l4.8 12.5c1.1 2.7 0.3 5.8-2.2 7.3q-7.8 5-18.2 8.4-13 3.9-26.2 3.9zm-5.1-101.7q-11.8 0-19.1 7.1-7.1 7.2-8.8 20h52.8q-1.4-27.1-24.9-27.1zm83.4 99c-3.6 0-6.4-2.9-6.4-6.5v-108.3c0-3.6 2.8-6.5 6.4-6.5h23.3c3.6 0 6.4 2.9 6.4 6.5v14.5q8.6-21.2 36.7-23.4l4.4-0.3c3.5-0.3 6.6 2.4 6.8 6l1.3 18.6c0.3 3.5-2.2 6.6-5.7 6.9l-14.6 1.6q-27.4 2.7-27.4 28.2v56.2c0 3.6-2.9 6.5-6.4 6.5zm139.1 2.7q-15.9 0-29.6-3.7-10.7-2.9-18.5-7.5c-2.6-1.4-3.5-4.5-2.5-7.3l4.4-12.1c1.4-3.8 5.9-5.4 9.6-3.6q6.3 3.1 13.6 5.3 11.8 3.2 23.3 3.2 10.2 0 15.1-3.2 4.9-3.4 4.9-8.9 0-8.6-12.4-10.8l-25.7-4.7q-15.4-2.8-23.5-11.2-8.1-8.3-8.1-21.9 0-12.4 6.9-21.3 6.8-8.9 18.8-13.8 12-4.9 27.6-4.9 13 0 25.2 3.4 9.7 2.6 17.3 7.6c2.3 1.5 3.1 4.6 2 7.2l-4.5 11.7c-1.5 4-6.4 5.4-10.1 3.4q-4.8-2.5-10.5-4.4-10.1-3.5-18.9-3.5-11 0-15.9 3.7-4.9 3.5-4.9 8.9 0 8.6 11.5 10.9l25.7 4.7q15.9 2.7 24.2 10.8 8.3 7.9 8.3 21.8 0 19-14.6 29.6-14.7 10.6-38.7 10.6zm110.3-2.7c-2.6 0-4.9-1.6-5.9-4l-43.7-108.3c-1.7-4.3 1.4-9 5.9-9h23.5c2.6 0 5 1.7 6 4.3l27 73.5 27.1-73.5c0.9-2.6 3.3-4.3 6-4.3h15.5c2.7 0 5.1 1.7 6 4.3l27.1 74.5 27.1-74.5c0.9-2.6 3.3-4.3 6-4.3h21.5c4.5 0 7.6 4.7 5.9 8.9l-43.2 108.3c-1 2.5-3.4 4.1-6 4.1h-22.6c-2.6 0-5-1.7-5.9-4.1l-24.9-64.8-24.1 64.7c-0.9 2.5-3.3 4.2-6 4.2zm210.5 2.7q-13.4 0-23.7-5.2-10.2-5.2-16.4-14.1-5.8-8.8-5.8-20 0-13 6.8-21 6.9-7.9 22.3-11.1 15.4-3.4 40.8-3.4h8.8v-4.2q0-10.9-4.9-15.3-4.9-4.7-16.6-4.7-9.8 0-20.8 3.2-7.5 2.1-15 5.7c-3.5 1.7-7.8 0.2-9.3-3.4l-5.3-13.2c-1.1-2.9-0.1-6.2 2.6-7.6q4.8-2.7 10.9-5 9.3-3.4 19.3-5.2 10-1.9 19.1-1.9 27.8 0 41.5 12.8 13.7 12.6 13.7 39.3v65.1c0 3.6-2.9 6.5-6.4 6.5h-21.6c-3.6 0-6.5-2.9-6.5-6.5v-11.8q-3.6 9.6-12.4 15.3-8.6 5.7-21.1 5.7zm8.4-24.9q10.2 0 17.3-7.2 7.1-7.2 7.1-18.5v-5h-8.6q-18.8 0-26.6 3.5-7.8 3.2-7.8 11.4 0 6.9 4.6 11.3 4.9 4.5 14 4.5zm93.6 66.6c-3.6 0-6.4-2.9-6.4-6.4v-152.8c0-3.6 2.8-6.5 6.4-6.5h23.3c3.6 0 6.4 2.9 6.4 6.5v11.6q4.9-9.4 15-14.9 10.2-5.6 23-5.6 15.6 0 27.3 7.6 12 7.7 18.6 21.7 6.6 14.1 6.6 33.6 0 19.5-6.6 33.9-6.6 14.1-18.6 22-11.7 7.6-27.3 7.6-12 0-22.1-5.2-9.7-5.2-15.1-13.8v54.3c0 3.5-2.9 6.4-6.4 6.4zm56.6-69.6q11.8 0 19.1-8.6 7.3-8.7 7.3-27 0-18-7.3-26.4-7.3-8.6-19.1-8.6-11.9 0-19.3 8.6-7.3 8.4-7.3 26.4 0 18.3 7.3 27 7.4 8.6 19.3 8.6z"/>
	<rect id="Path 8" class="s1" x="61.6" y="61.6" width="333.2" height="333.2" rx="19.7"></rect>
	<rect id="Path 9" class="s2" x="123.1" y="123.1" width="333.2" height="333.2" rx="19.7"></rect>
	<rect id="Path 10" class="s3" y="0" width="333.2" height="333.2" rx="19.7"></rect>
</svg>